<mxfile host="65bd71144e">
    <diagram name="便携式指针式仪表数据智能读取装置系统交互流程图" id="interaction-flow-diagram">
        <mxGraphModel dx="3664" dy="700" grid="1" gridSize="10" guides="1" tooltips="1" connect="1" arrows="1" fold="1" page="1" pageScale="1" pageWidth="2400" pageHeight="2000" math="0" shadow="0">
            <root>
                <mxCell id="0"/>
                <mxCell id="1" parent="0"/>
                <mxCell id="background" value="" style="rounded=0;whiteSpace=wrap;html=1;fillColor=#f5f5f5;strokeColor=none;opacity=50;" parent="1" vertex="1">
                    <mxGeometry x="-20" y="10" width="2400" height="1270" as="geometry"/>
                </mxCell>
                <mxCell id="main-title" value="便携式指针式仪表数据智能读取装置系统交互流程图" style="text;html=1;strokeColor=none;fillColor=none;align=center;verticalAlign=middle;whiteSpace=wrap;rounded=0;fontSize=32;fontStyle=1;fontColor=#1565c0;fontFamily=Microsoft YaHei;" parent="1" vertex="1">
                    <mxGeometry x="800" y="30" width="800" height="60" as="geometry"/>
                </mxCell>
                <mxCell id="sub-title" value="端-边-云协同工作流程 | 从图像采集到智能分析的完整数据链路" style="text;html=1;strokeColor=none;fillColor=none;align=center;verticalAlign=middle;whiteSpace=wrap;rounded=0;fontSize=16;fontColor=#666666;fontFamily=Microsoft YaHei;" parent="1" vertex="1">
                    <mxGeometry x="800" y="90" width="800" height="30" as="geometry"/>
                </mxCell>
                <mxCell id="step1" value="1⃣&lt;br&gt;&lt;b&gt;巡检人员&lt;/b&gt;&lt;br&gt;&lt;b&gt;现场拍摄&lt;/b&gt;&lt;br&gt;&lt;font color=&quot;#666666&quot;&gt;手持拍摄杆对准仪表&lt;/font&gt;" style="rounded=1;whiteSpace=wrap;html=1;fillColor=#ffffff;strokeColor=#4caf50;strokeWidth=2;shadow=1;fontFamily=Microsoft YaHei;" parent="1" vertex="1">
                    <mxGeometry x="80" y="200" width="140" height="70" as="geometry"/>
                </mxCell>
                <mxCell id="step2" value="2⃣&lt;br&gt;&lt;b&gt;图像采集&lt;/b&gt;&lt;br&gt;&lt;font color=&quot;#666666&quot;&gt;4K高清拍摄&lt;br&gt;质量检测&lt;/font&gt;" style="rounded=1;whiteSpace=wrap;html=1;fillColor=#ffffff;strokeColor=#1976d2;strokeWidth=2;shadow=1;fontFamily=Microsoft YaHei;" parent="1" vertex="1">
                    <mxGeometry x="280" y="200" width="140" height="70" as="geometry"/>
                </mxCell>
                <mxCell id="step3" value="3⃣&lt;br&gt;&lt;b&gt;元数据记录&lt;/b&gt;&lt;br&gt;&lt;font color=&quot;#666666&quot;&gt;时间戳、GPS位置&lt;br&gt;设备编号&lt;/font&gt;" style="rounded=1;whiteSpace=wrap;html=1;fillColor=#ffffff;strokeColor=#1976d2;strokeWidth=2;shadow=1;fontFamily=Microsoft YaHei;" parent="1" vertex="1">
                    <mxGeometry x="480" y="200" width="140" height="70" as="geometry"/>
                </mxCell>
                <mxCell id="quality-check" value="图像质量&lt;br&gt;是否合格？" style="rhombus;whiteSpace=wrap;html=1;fillColor=#fff2cc;strokeColor=#d6b656;fontFamily=Microsoft YaHei;shadow=1;" parent="1" vertex="1">
                    <mxGeometry x="500" y="320" width="100" height="80" as="geometry"/>
                </mxCell>
                <mxCell id="error-process" value="❌&lt;br&gt;&lt;b&gt;异常处理&lt;/b&gt;&lt;br&gt;&lt;font color=&quot;#666666&quot;&gt;重新拍摄&lt;br&gt;或人工校验&lt;/font&gt;" style="rounded=1;whiteSpace=wrap;html=1;fillColor=#ffebee;strokeColor=#f44336;strokeWidth=2;shadow=1;fontFamily=Microsoft YaHei;" parent="1" vertex="1">
                    <mxGeometry x="480" y="440" width="140" height="70" as="geometry"/>
                </mxCell>
                <mxCell id="step4" value="4⃣&lt;br&gt;&lt;b&gt;本地缓存&lt;/b&gt;&lt;br&gt;&lt;font color=&quot;#666666&quot;&gt;图片暂存&lt;br&gt;网络检测&lt;/font&gt;" style="rounded=1;whiteSpace=wrap;html=1;fillColor=#ffffff;strokeColor=#1976d2;strokeWidth=2;shadow=1;fontFamily=Microsoft YaHei;" parent="1" vertex="1">
                    <mxGeometry x="680" y="200" width="140" height="70" as="geometry"/>
                </mxCell>
                <mxCell id="step5" value="5⃣&lt;br&gt;&lt;b&gt;数据传输&lt;/b&gt;&lt;br&gt;&lt;font color=&quot;#666666&quot;&gt;蓝牙/WiFi&lt;br&gt;至边缘设备&lt;/font&gt;" style="rounded=1;whiteSpace=wrap;html=1;fillColor=#ffffff;strokeColor=#1976d2;strokeWidth=2;shadow=1;fontFamily=Microsoft YaHei;" parent="1" vertex="1">
                    <mxGeometry x="880" y="200" width="140" height="70" as="geometry"/>
                </mxCell>
                <mxCell id="network-check" value="网络&lt;br&gt;是否可用？" style="rhombus;whiteSpace=wrap;html=1;fillColor=#fff2cc;strokeColor=#d6b656;fontFamily=Microsoft YaHei;shadow=1;" parent="1" vertex="1">
                    <mxGeometry x="900" y="320" width="100" height="80" as="geometry"/>
                </mxCell>
                <mxCell id="offline-storage" value="📴&lt;br&gt;&lt;b&gt;离线存储&lt;/b&gt;&lt;br&gt;&lt;font color=&quot;#666666&quot;&gt;本地缓存&lt;br&gt;等待网络&lt;/font&gt;" style="rounded=1;whiteSpace=wrap;html=1;fillColor=#ffebee;strokeColor=#f44336;strokeWidth=2;shadow=1;fontFamily=Microsoft YaHei;" parent="1" vertex="1">
                    <mxGeometry x="880" y="440" width="140" height="70" as="geometry"/>
                </mxCell>
                <mxCell id="step6" value="6⃣&lt;br&gt;&lt;b&gt;图像预处理&lt;/b&gt;&lt;br&gt;&lt;font color=&quot;#666666&quot;&gt;去噪、增强&lt;br&gt;格式转换&lt;/font&gt;" style="rounded=1;whiteSpace=wrap;html=1;fillColor=#ffffff;strokeColor=#7b1fa2;strokeWidth=2;shadow=1;fontFamily=Microsoft YaHei;" parent="1" vertex="1">
                    <mxGeometry x="1080" y="200" width="140" height="70" as="geometry"/>
                </mxCell>
                <mxCell id="step7" value="7⃣&lt;br&gt;&lt;b&gt;目标检测&lt;/b&gt;&lt;br&gt;&lt;font color=&quot;#666666&quot;&gt;PPYOLOE-Plus&lt;br&gt;仪表定位&lt;/font&gt;" style="rounded=1;whiteSpace=wrap;html=1;fillColor=#ffffff;strokeColor=#7b1fa2;strokeWidth=2;shadow=1;fontFamily=Microsoft YaHei;" parent="1" vertex="1">
                    <mxGeometry x="1280" y="200" width="140" height="70" as="geometry"/>
                </mxCell>
                <mxCell id="step8" value="8⃣&lt;br&gt;&lt;b&gt;指针分割&lt;/b&gt;&lt;br&gt;&lt;font color=&quot;#666666&quot;&gt;OCRNet分割&lt;br&gt;角度计算&lt;/font&gt;" style="rounded=1;whiteSpace=wrap;html=1;fillColor=#ffffff;strokeColor=#7b1fa2;strokeWidth=2;shadow=1;fontFamily=Microsoft YaHei;" parent="1" vertex="1">
                    <mxGeometry x="1480" y="200" width="140" height="70" as="geometry"/>
                </mxCell>
                <mxCell id="step9" value="9⃣&lt;br&gt;&lt;b&gt;刻度定位&lt;/b&gt;&lt;br&gt;&lt;font color=&quot;#666666&quot;&gt;HRNet定位&lt;br&gt;关键刻度&lt;/font&gt;" style="rounded=1;whiteSpace=wrap;html=1;fillColor=#ffffff;strokeColor=#7b1fa2;strokeWidth=2;shadow=1;fontFamily=Microsoft YaHei;" parent="1" vertex="1">
                    <mxGeometry x="1680" y="200" width="140" height="70" as="geometry"/>
                </mxCell>
                <mxCell id="confidence-check" value="识别置信度&lt;br&gt;是否足够？" style="rhombus;whiteSpace=wrap;html=1;fillColor=#fff2cc;strokeColor=#d6b656;fontFamily=Microsoft YaHei;shadow=1;" parent="1" vertex="1">
                    <mxGeometry x="1700" y="320" width="100" height="80" as="geometry"/>
                </mxCell>
                <mxCell id="manual-verify" value="👁️&lt;br&gt;&lt;b&gt;人工校验&lt;/b&gt;&lt;br&gt;&lt;font color=&quot;#666666&quot;&gt;专家审核&lt;br&gt;结果确认&lt;/font&gt;" style="rounded=1;whiteSpace=wrap;html=1;fillColor=#ffebee;strokeColor=#f44336;strokeWidth=2;shadow=1;fontFamily=Microsoft YaHei;" parent="1" vertex="1">
                    <mxGeometry x="1680" y="440" width="140" height="70" as="geometry"/>
                </mxCell>
                <mxCell id="step10" value="10&lt;br&gt;&lt;b&gt;数值读取&lt;/b&gt;&lt;br&gt;&lt;font color=&quot;#666666&quot;&gt;PPOCRv3&lt;br&gt;量程解析&lt;/font&gt;" style="rounded=1;whiteSpace=wrap;html=1;fillColor=#ffffff;strokeColor=#7b1fa2;strokeWidth=2;shadow=1;fontFamily=Microsoft YaHei;" parent="1" vertex="1">
                    <mxGeometry x="1880" y="200" width="140" height="70" as="geometry"/>
                </mxCell>
                <mxCell id="step11" value="11⃣&lt;br&gt;&lt;b&gt;融合计算&lt;/b&gt;&lt;br&gt;&lt;font color=&quot;#666666&quot;&gt;角度计算&lt;br&gt;数值转换&lt;/font&gt;" style="rounded=1;whiteSpace=wrap;html=1;fillColor=#ffffff;strokeColor=#7b1fa2;strokeWidth=2;shadow=1;fontFamily=Microsoft YaHei;" parent="1" vertex="1">
                    <mxGeometry x="2080" y="200" width="140" height="70" as="geometry"/>
                </mxCell>
                <mxCell id="step12" value="1⃣2⃣&lt;br&gt;&lt;b&gt;云端传输&lt;/b&gt;&lt;br&gt;&lt;font color=&quot;#666666&quot;&gt;网络上传&lt;br&gt;断点续传&lt;/font&gt;" style="rounded=1;whiteSpace=wrap;html=1;fillColor=#ffffff;strokeColor=#f57c00;strokeWidth=2;shadow=1;fontFamily=Microsoft YaHei;" parent="1" vertex="1">
                    <mxGeometry x="280" y="600" width="140" height="70" as="geometry"/>
                </mxCell>
                <mxCell id="step13" value="1⃣3⃣&lt;br&gt;&lt;b&gt;大模型辅助&lt;/b&gt;&lt;br&gt;&lt;font color=&quot;#666666&quot;&gt;异常检测&lt;br&gt;趋势分析&lt;/font&gt;" style="rounded=1;whiteSpace=wrap;html=1;fillColor=#ffffff;strokeColor=#f57c00;strokeWidth=2;shadow=1;fontFamily=Microsoft YaHei;" parent="1" vertex="1">
                    <mxGeometry x="480" y="600" width="140" height="70" as="geometry"/>
                </mxCell>
                <mxCell id="anomaly-result" value="数据&lt;br&gt;是否异常？" style="rhombus;whiteSpace=wrap;html=1;fillColor=#fff2cc;strokeColor=#d6b656;fontFamily=Microsoft YaHei;shadow=1;" parent="1" vertex="1">
                    <mxGeometry x="500" y="720" width="100" height="80" as="geometry"/>
                </mxCell>
                <mxCell id="alert-trigger" value="⚠️&lt;br&gt;&lt;b&gt;预警触发&lt;/b&gt;&lt;br&gt;&lt;font color=&quot;#666666&quot;&gt;异常通知&lt;br&gt;紧急处理&lt;/font&gt;" style="rounded=1;whiteSpace=wrap;html=1;fillColor=#ffebee;strokeColor=#f44336;strokeWidth=2;shadow=1;fontFamily=Microsoft YaHei;" parent="1" vertex="1">
                    <mxGeometry x="480" y="840" width="140" height="70" as="geometry"/>
                </mxCell>
                <mxCell id="step14" value="1⃣4⃣&lt;br&gt;&lt;b&gt;数据存储&lt;/b&gt;&lt;br&gt;&lt;font color=&quot;#666666&quot;&gt;分布式数据库&lt;br&gt;设备档案&lt;/font&gt;" style="rounded=1;whiteSpace=wrap;html=1;fillColor=#ffffff;strokeColor=#f57c00;strokeWidth=2;shadow=1;fontFamily=Microsoft YaHei;" parent="1" vertex="1">
                    <mxGeometry x="680" y="600" width="140" height="70" as="geometry"/>
                </mxCell>
                <mxCell id="step15" value="1⃣5⃣&lt;br&gt;&lt;b&gt;趋势分析&lt;/b&gt;&lt;br&gt;&lt;font color=&quot;#666666&quot;&gt;AI预测&lt;br&gt;模式识别&lt;/font&gt;" style="rounded=1;whiteSpace=wrap;html=1;fillColor=#ffffff;strokeColor=#f57c00;strokeWidth=2;shadow=1;fontFamily=Microsoft YaHei;" parent="1" vertex="1">
                    <mxGeometry x="880" y="600" width="140" height="70" as="geometry"/>
                </mxCell>
                <mxCell id="step16" value="1⃣6⃣&lt;br&gt;&lt;b&gt;实时监控&lt;/b&gt;&lt;br&gt;&lt;font color=&quot;#666666&quot;&gt;关键指标&lt;br&gt;预警触发&lt;/font&gt;" style="rounded=1;whiteSpace=wrap;html=1;fillColor=#ffffff;strokeColor=#f57c00;strokeWidth=2;shadow=1;fontFamily=Microsoft YaHei;" parent="1" vertex="1">
                    <mxGeometry x="1080" y="600" width="140" height="70" as="geometry"/>
                </mxCell>
                <mxCell id="step17" value="1⃣7⃣&lt;br&gt;&lt;b&gt;结果反馈&lt;/b&gt;&lt;br&gt;&lt;font color=&quot;#666666&quot;&gt;终端显示&lt;br&gt;状态提示&lt;/font&gt;" style="rounded=1;whiteSpace=wrap;html=1;fillColor=#ffffff;strokeColor=#1976d2;strokeWidth=2;shadow=1;fontFamily=Microsoft YaHei;" parent="1" vertex="1">
                    <mxGeometry x="1280" y="600" width="140" height="70" as="geometry"/>
                </mxCell>
                <mxCell id="step18" value="1⃣8⃣&lt;br&gt;&lt;b&gt;数据大屏&lt;/b&gt;&lt;br&gt;&lt;font color=&quot;#666666&quot;&gt;可视化展示&lt;br&gt;实时监控&lt;/font&gt;" style="rounded=1;whiteSpace=wrap;html=1;fillColor=#ffffff;strokeColor=#e91e63;strokeWidth=2;shadow=1;fontFamily=Microsoft YaHei;" parent="1" vertex="1">
                    <mxGeometry x="1480" y="600" width="140" height="70" as="geometry"/>
                </mxCell>
                <mxCell id="step19" value="1⃣9⃣&lt;br&gt;&lt;b&gt;管理平台&lt;/b&gt;&lt;br&gt;&lt;font color=&quot;#666666&quot;&gt;数据分析&lt;br&gt;报表生成&lt;/font&gt;" style="rounded=1;whiteSpace=wrap;html=1;fillColor=#ffffff;strokeColor=#e91e63;strokeWidth=2;shadow=1;fontFamily=Microsoft YaHei;" parent="1" vertex="1">
                    <mxGeometry x="1680" y="600" width="140" height="70" as="geometry"/>
                </mxCell>
                <mxCell id="step20" value="2⃣0⃣&lt;br&gt;&lt;b&gt;系统优化&lt;/b&gt;&lt;br&gt;&lt;font color=&quot;#666666&quot;&gt;模型更新&lt;br&gt;性能调优&lt;/font&gt;" style="rounded=1;whiteSpace=wrap;html=1;fillColor=#ffffff;strokeColor=#e91e63;strokeWidth=2;shadow=1;fontFamily=Microsoft YaHei;" parent="1" vertex="1">
                    <mxGeometry x="1880" y="600" width="140" height="70" as="geometry"/>
                </mxCell>
                <mxCell id="flow-1-2" value="" style="edgeStyle=orthogonalEdgeStyle;rounded=0;orthogonalLoop=1;jettySize=auto;html=1;strokeColor=#1976d2;strokeWidth=3;endArrow=classic;" parent="1" source="step1" target="step2" edge="1">
                    <mxGeometry relative="1" as="geometry"/>
                </mxCell>
                <mxCell id="flow-1-2-label" value="拍摄指令" style="edgeLabel;html=1;align=center;verticalAlign=middle;resizable=0;points=[];fontSize=11;fontFamily=Microsoft YaHei;fillColor=#e3f2fd;rounded=1;" parent="flow-1-2" vertex="1" connectable="0">
                    <mxGeometry x="-0.1" y="1" relative="1" as="geometry">
                        <mxPoint as="offset"/>
                    </mxGeometry>
                </mxCell>
                <mxCell id="flow-2-3" value="" style="edgeStyle=orthogonalEdgeStyle;rounded=0;orthogonalLoop=1;jettySize=auto;html=1;strokeColor=#1976d2;strokeWidth=3;endArrow=classic;" parent="1" source="step2" target="step3" edge="1">
                    <mxGeometry relative="1" as="geometry"/>
                </mxCell>
                <mxCell id="flow-3-quality" value="" style="edgeStyle=orthogonalEdgeStyle;rounded=0;orthogonalLoop=1;jettySize=auto;html=1;strokeColor=#ff9800;strokeWidth=2;endArrow=classic;dashed=1;" parent="1" source="step3" target="quality-check" edge="1">
                    <mxGeometry relative="1" as="geometry"/>
                </mxCell>
                <mxCell id="flow-quality-error" value="不合格" style="edgeStyle=orthogonalEdgeStyle;rounded=0;orthogonalLoop=1;jettySize=auto;html=1;strokeColor=#f44336;strokeWidth=2;endArrow=classic;fontFamily=Microsoft YaHei;fontSize=10;" parent="1" source="quality-check" target="error-process" edge="1">
                    <mxGeometry relative="1" as="geometry"/>
                </mxCell>
                <mxCell id="flow-quality-ok" value="合格" style="edgeStyle=orthogonalEdgeStyle;rounded=0;orthogonalLoop=1;jettySize=auto;html=1;strokeColor=#4caf50;strokeWidth=2;endArrow=classic;fontFamily=Microsoft YaHei;fontSize=10;" parent="1" source="quality-check" target="step4" edge="1">
                    <mxGeometry relative="1" as="geometry">
                        <Array as="points">
                            <mxPoint x="550" y="300"/>
                            <mxPoint x="750" y="300"/>
                        </Array>
                    </mxGeometry>
                </mxCell>
                <mxCell id="flow-3-4" value="" style="edgeStyle=orthogonalEdgeStyle;rounded=0;orthogonalLoop=1;jettySize=auto;html=1;strokeColor=#1976d2;strokeWidth=3;endArrow=classic;" parent="1" source="step3" target="step4" edge="1">
                    <mxGeometry relative="1" as="geometry"/>
                </mxCell>
                <mxCell id="flow-4-5" value="" style="edgeStyle=orthogonalEdgeStyle;rounded=0;orthogonalLoop=1;jettySize=auto;html=1;strokeColor=#1976d2;strokeWidth=3;endArrow=classic;" parent="1" source="step4" target="step5" edge="1">
                    <mxGeometry relative="1" as="geometry"/>
                </mxCell>
                <mxCell id="flow-5-network" value="" style="edgeStyle=orthogonalEdgeStyle;rounded=0;orthogonalLoop=1;jettySize=auto;html=1;strokeColor=#ff9800;strokeWidth=2;endArrow=classic;dashed=1;" parent="1" source="step5" target="network-check" edge="1">
                    <mxGeometry relative="1" as="geometry"/>
                </mxCell>
                <mxCell id="flow-network-offline" value="断网" style="edgeStyle=orthogonalEdgeStyle;rounded=0;orthogonalLoop=1;jettySize=auto;html=1;strokeColor=#f44336;strokeWidth=2;endArrow=classic;fontFamily=Microsoft YaHei;fontSize=10;" parent="1" source="network-check" target="offline-storage" edge="1">
                    <mxGeometry relative="1" as="geometry"/>
                </mxCell>
                <mxCell id="flow-network-ok" value="联网" style="edgeStyle=orthogonalEdgeStyle;rounded=0;orthogonalLoop=1;jettySize=auto;html=1;strokeColor=#4caf50;strokeWidth=2;endArrow=classic;fontFamily=Microsoft YaHei;fontSize=10;" parent="1" source="network-check" target="step6" edge="1">
                    <mxGeometry relative="1" as="geometry">
                        <Array as="points">
                            <mxPoint x="950" y="300"/>
                            <mxPoint x="1150" y="300"/>
                        </Array>
                    </mxGeometry>
                </mxCell>
                <mxCell id="flow-5-6" value="" style="edgeStyle=orthogonalEdgeStyle;rounded=0;orthogonalLoop=1;jettySize=auto;html=1;strokeColor=#7b1fa2;strokeWidth=3;endArrow=classic;" parent="1" source="step5" target="step6" edge="1">
                    <mxGeometry relative="1" as="geometry"/>
                </mxCell>
                <mxCell id="flow-5-6-label" value="数据传输" style="edgeLabel;html=1;align=center;verticalAlign=middle;resizable=0;points=[];fontSize=11;fontFamily=Microsoft YaHei;fillColor=#f3e5f5;rounded=1;" parent="flow-5-6" vertex="1" connectable="0">
                    <mxGeometry x="-0.1" y="1" relative="1" as="geometry">
                        <mxPoint as="offset"/>
                    </mxGeometry>
                </mxCell>
                <mxCell id="flow-6-7" value="" style="edgeStyle=orthogonalEdgeStyle;rounded=0;orthogonalLoop=1;jettySize=auto;html=1;strokeColor=#7b1fa2;strokeWidth=3;endArrow=classic;" parent="1" source="step6" target="step7" edge="1">
                    <mxGeometry relative="1" as="geometry"/>
                </mxCell>
                <mxCell id="flow-7-8" value="" style="edgeStyle=orthogonalEdgeStyle;rounded=0;orthogonalLoop=1;jettySize=auto;html=1;strokeColor=#7b1fa2;strokeWidth=3;endArrow=classic;" parent="1" source="step7" target="step8" edge="1">
                    <mxGeometry relative="1" as="geometry"/>
                </mxCell>
                <mxCell id="flow-8-9" value="" style="edgeStyle=orthogonalEdgeStyle;rounded=0;orthogonalLoop=1;jettySize=auto;html=1;strokeColor=#7b1fa2;strokeWidth=3;endArrow=classic;" parent="1" source="step8" target="step9" edge="1">
                    <mxGeometry relative="1" as="geometry"/>
                </mxCell>
                <mxCell id="flow-9-confidence" value="" style="edgeStyle=orthogonalEdgeStyle;rounded=0;orthogonalLoop=1;jettySize=auto;html=1;strokeColor=#ff9800;strokeWidth=2;endArrow=classic;dashed=1;" parent="1" source="step9" target="confidence-check" edge="1">
                    <mxGeometry relative="1" as="geometry"/>
                </mxCell>
                <mxCell id="flow-confidence-manual" value="置信度低" style="edgeStyle=orthogonalEdgeStyle;rounded=0;orthogonalLoop=1;jettySize=auto;html=1;strokeColor=#f44336;strokeWidth=2;endArrow=classic;fontFamily=Microsoft YaHei;fontSize=10;" parent="1" source="confidence-check" target="manual-verify" edge="1">
                    <mxGeometry relative="1" as="geometry"/>
                </mxCell>
                <mxCell id="flow-confidence-ok" value="置信度高" style="edgeStyle=orthogonalEdgeStyle;rounded=0;orthogonalLoop=1;jettySize=auto;html=1;strokeColor=#4caf50;strokeWidth=2;endArrow=classic;fontFamily=Microsoft YaHei;fontSize=10;" parent="1" source="confidence-check" target="step10" edge="1">
                    <mxGeometry relative="1" as="geometry">
                        <Array as="points">
                            <mxPoint x="1750" y="300"/>
                            <mxPoint x="1950" y="300"/>
                        </Array>
                    </mxGeometry>
                </mxCell>
                <mxCell id="flow-9-10" value="" style="edgeStyle=orthogonalEdgeStyle;rounded=0;orthogonalLoop=1;jettySize=auto;html=1;strokeColor=#7b1fa2;strokeWidth=3;endArrow=classic;" parent="1" source="step9" target="step10" edge="1">
                    <mxGeometry relative="1" as="geometry"/>
                </mxCell>
                <mxCell id="flow-10-11" value="" style="edgeStyle=orthogonalEdgeStyle;rounded=0;orthogonalLoop=1;jettySize=auto;html=1;strokeColor=#7b1fa2;strokeWidth=3;endArrow=classic;" parent="1" source="step10" target="step11" edge="1">
                    <mxGeometry relative="1" as="geometry"/>
                </mxCell>
                <mxCell id="flow-11-12" value="" style="edgeStyle=orthogonalEdgeStyle;rounded=0;orthogonalLoop=1;jettySize=auto;html=1;strokeColor=#f57c00;strokeWidth=3;endArrow=classic;" parent="1" source="step11" target="step12" edge="1">
                    <mxGeometry relative="1" as="geometry">
                        <Array as="points">
                            <mxPoint x="2150" y="400"/>
                            <mxPoint x="350" y="400"/>
                        </Array>
                    </mxGeometry>
                </mxCell>
                <mxCell id="flow-11-12-label" value="云端处理" style="edgeLabel;html=1;align=center;verticalAlign=middle;resizable=0;points=[];fontSize=11;fontFamily=Microsoft YaHei;fillColor=#fff3e0;rounded=1;" parent="flow-11-12" vertex="1" connectable="0">
                    <mxGeometry x="-0.1" y="1" relative="1" as="geometry">
                        <mxPoint as="offset"/>
                    </mxGeometry>
                </mxCell>
                <mxCell id="flow-12-13" value="" style="edgeStyle=orthogonalEdgeStyle;rounded=0;orthogonalLoop=1;jettySize=auto;html=1;strokeColor=#f57c00;strokeWidth=3;endArrow=classic;" parent="1" source="step12" target="step13" edge="1">
                    <mxGeometry relative="1" as="geometry"/>
                </mxCell>
                <mxCell id="flow-13-anomaly" value="" style="edgeStyle=orthogonalEdgeStyle;rounded=0;orthogonalLoop=1;jettySize=auto;html=1;strokeColor=#ff9800;strokeWidth=2;endArrow=classic;dashed=1;" parent="1" source="step13" target="anomaly-result" edge="1">
                    <mxGeometry relative="1" as="geometry"/>
                </mxCell>
                <mxCell id="flow-anomaly-alert" value="异常" style="edgeStyle=orthogonalEdgeStyle;rounded=0;orthogonalLoop=1;jettySize=auto;html=1;strokeColor=#f44336;strokeWidth=2;endArrow=classic;fontFamily=Microsoft YaHei;fontSize=10;" parent="1" source="anomaly-result" target="alert-trigger" edge="1">
                    <mxGeometry relative="1" as="geometry"/>
                </mxCell>
                <mxCell id="flow-anomaly-ok" value="正常" style="edgeStyle=orthogonalEdgeStyle;rounded=0;orthogonalLoop=1;jettySize=auto;html=1;strokeColor=#4caf50;strokeWidth=2;endArrow=classic;fontFamily=Microsoft YaHei;fontSize=10;" parent="1" source="anomaly-result" target="step14" edge="1">
                    <mxGeometry relative="1" as="geometry">
                        <Array as="points">
                            <mxPoint x="550" y="680"/>
                            <mxPoint x="750" y="680"/>
                        </Array>
                    </mxGeometry>
                </mxCell>
                <mxCell id="flow-13-14" value="" style="edgeStyle=orthogonalEdgeStyle;rounded=0;orthogonalLoop=1;jettySize=auto;html=1;strokeColor=#f57c00;strokeWidth=3;endArrow=classic;" parent="1" source="step13" target="step14" edge="1">
                    <mxGeometry relative="1" as="geometry"/>
                </mxCell>
                <mxCell id="flow-14-15" value="" style="edgeStyle=orthogonalEdgeStyle;rounded=0;orthogonalLoop=1;jettySize=auto;html=1;strokeColor=#f57c00;strokeWidth=3;endArrow=classic;" parent="1" source="step14" target="step15" edge="1">
                    <mxGeometry relative="1" as="geometry"/>
                </mxCell>
                <mxCell id="flow-15-16" value="" style="edgeStyle=orthogonalEdgeStyle;rounded=0;orthogonalLoop=1;jettySize=auto;html=1;strokeColor=#f57c00;strokeWidth=3;endArrow=classic;" parent="1" source="step15" target="step16" edge="1">
                    <mxGeometry relative="1" as="geometry"/>
                </mxCell>
                <mxCell id="flow-16-17" value="" style="edgeStyle=orthogonalEdgeStyle;rounded=0;orthogonalLoop=1;jettySize=auto;html=1;strokeColor=#1976d2;strokeWidth=3;endArrow=classic;" parent="1" source="step16" target="step17" edge="1">
                    <mxGeometry relative="1" as="geometry"/>
                </mxCell>
                <mxCell id="flow-16-17-label" value="结果反馈" style="edgeLabel;html=1;align=center;verticalAlign=middle;resizable=0;points=[];fontSize=11;fontFamily=Microsoft YaHei;fillColor=#e3f2fd;rounded=1;" parent="flow-16-17" vertex="1" connectable="0">
                    <mxGeometry x="-0.1" y="1" relative="1" as="geometry">
                        <mxPoint as="offset"/>
                    </mxGeometry>
                </mxCell>
                <mxCell id="flow-16-18" value="" style="edgeStyle=orthogonalEdgeStyle;rounded=0;orthogonalLoop=1;jettySize=auto;html=1;strokeColor=#e91e63;strokeWidth=3;endArrow=classic;" parent="1" source="step16" target="step18" edge="1">
                    <mxGeometry relative="1" as="geometry">
                        <Array as="points">
                            <mxPoint x="1150" y="500"/>
                            <mxPoint x="1550" y="500"/>
                        </Array>
                    </mxGeometry>
                </mxCell>
                <mxCell id="flow-16-18-label" value="展示输出" style="edgeLabel;html=1;align=center;verticalAlign=middle;resizable=0;points=[];fontSize=11;fontFamily=Microsoft YaHei;fillColor=#fce4ec;rounded=1;" parent="flow-16-18" vertex="1" connectable="0">
                    <mxGeometry x="-0.1" y="1" relative="1" as="geometry">
                        <mxPoint as="offset"/>
                    </mxGeometry>
                </mxCell>
                <mxCell id="flow-17-18" value="" style="edgeStyle=orthogonalEdgeStyle;rounded=0;orthogonalLoop=1;jettySize=auto;html=1;strokeColor=#e91e63;strokeWidth=3;endArrow=classic;" parent="1" source="step17" target="step18" edge="1">
                    <mxGeometry relative="1" as="geometry"/>
                </mxCell>
                <mxCell id="flow-18-19" value="" style="edgeStyle=orthogonalEdgeStyle;rounded=0;orthogonalLoop=1;jettySize=auto;html=1;strokeColor=#e91e63;strokeWidth=3;endArrow=classic;" parent="1" source="step18" target="step19" edge="1">
                    <mxGeometry relative="1" as="geometry"/>
                </mxCell>
                <mxCell id="flow-19-20" value="" style="edgeStyle=orthogonalEdgeStyle;rounded=0;orthogonalLoop=1;jettySize=auto;html=1;strokeColor=#e91e63;strokeWidth=3;endArrow=classic;" parent="1" source="step19" target="step20" edge="1">
                    <mxGeometry relative="1" as="geometry"/>
                </mxCell>
                <mxCell id="flow-error-retry" value="重新拍摄" style="edgeStyle=orthogonalEdgeStyle;rounded=0;orthogonalLoop=1;jettySize=auto;html=1;strokeColor=#f44336;strokeWidth=2;endArrow=classic;dashed=1;dashPattern=5 5;fontFamily=Microsoft YaHei;fontSize=10;" parent="1" source="error-process" target="step1" edge="1">
                    <mxGeometry relative="1" as="geometry">
                        <Array as="points">
                            <mxPoint x="550" y="540"/>
                            <mxPoint x="50" y="540"/>
                            <mxPoint x="50" y="150"/>
                            <mxPoint x="150" y="150"/>
                        </Array>
                    </mxGeometry>
                </mxCell>
                <mxCell id="flow-offline-retry" value="网络恢复" style="edgeStyle=orthogonalEdgeStyle;rounded=0;orthogonalLoop=1;jettySize=auto;html=1;strokeColor=#ff9800;strokeWidth=2;endArrow=classic;dashed=1;dashPattern=5 5;fontFamily=Microsoft YaHei;fontSize=10;" parent="1" source="offline-storage" target="step6" edge="1">
                    <mxGeometry relative="1" as="geometry">
                        <Array as="points">
                            <mxPoint x="950" y="540"/>
                            <mxPoint x="1150" y="540"/>
                            <mxPoint x="1150" y="300"/>
                        </Array>
                    </mxGeometry>
                </mxCell>
                <mxCell id="flow-manual-continue" value="校验完成" style="edgeStyle=orthogonalEdgeStyle;rounded=0;orthogonalLoop=1;jettySize=auto;html=1;strokeColor=#4caf50;strokeWidth=2;endArrow=classic;dashed=1;dashPattern=5 5;fontFamily=Microsoft YaHei;fontSize=10;" parent="1" source="manual-verify" target="step10" edge="1">
                    <mxGeometry relative="1" as="geometry">
                        <Array as="points">
                            <mxPoint x="1750" y="540"/>
                            <mxPoint x="1950" y="540"/>
                            <mxPoint x="1950" y="300"/>
                        </Array>
                    </mxGeometry>
                </mxCell>
                <mxCell id="flow-optimize-feedback" value="模型优化" style="edgeStyle=orthogonalEdgeStyle;rounded=0;orthogonalLoop=1;jettySize=auto;html=1;strokeColor=#9c27b0;strokeWidth=2;endArrow=classic;dashed=1;dashPattern=5 5;fontFamily=Microsoft YaHei;fontSize=10;" parent="1" source="step20" target="step6" edge="1">
                    <mxGeometry relative="1" as="geometry">
                        <Array as="points">
                            <mxPoint x="1950" y="700"/>
                            <mxPoint x="2200" y="700"/>
                            <mxPoint x="2200" y="150"/>
                            <mxPoint x="1150" y="150"/>
                        </Array>
                    </mxGeometry>
                </mxCell>
                <mxCell id="layer-terminal" value="📱 端侧设备层" style="text;html=1;strokeColor=none;fillColor=none;align=center;verticalAlign=middle;whiteSpace=wrap;rounded=0;fontSize=16;fontStyle=1;fontColor=#1565c0;fontFamily=Microsoft YaHei;" parent="1" vertex="1">
                    <mxGeometry x="80" y="140" width="150" height="30" as="geometry"/>
                </mxCell>
                <mxCell id="layer-edge" value="⚡ 边缘计算层" style="text;html=1;strokeColor=none;fillColor=none;align=center;verticalAlign=middle;whiteSpace=wrap;rounded=0;fontSize=16;fontStyle=1;fontColor=#6a1b9a;fontFamily=Microsoft YaHei;" parent="1" vertex="1">
                    <mxGeometry x="1080" y="140" width="150" height="30" as="geometry"/>
                </mxCell>
                <mxCell id="layer-cloud" value="☁️ 云端服务层" style="text;html=1;strokeColor=none;fillColor=none;align=center;verticalAlign=middle;whiteSpace=wrap;rounded=0;fontSize=16;fontStyle=1;fontColor=#e65100;fontFamily=Microsoft YaHei;" parent="1" vertex="1">
                    <mxGeometry x="280" y="540" width="150" height="30" as="geometry"/>
                </mxCell>
                <mxCell id="layer-management" value="📊 管理展示层" style="text;html=1;strokeColor=none;fillColor=none;align=center;verticalAlign=middle;whiteSpace=wrap;rounded=0;fontSize=16;fontStyle=1;fontColor=#c2185b;fontFamily=Microsoft YaHei;" parent="1" vertex="1">
                    <mxGeometry x="1480" y="540" width="150" height="30" as="geometry"/>
                </mxCell>
                <mxCell id="timeline-title" value="⏱️ 处理时间轴" style="text;html=1;strokeColor=none;fillColor=none;align=left;verticalAlign=middle;whiteSpace=wrap;rounded=0;fontSize=16;fontStyle=1;fontColor=#1565c0;fontFamily=Microsoft YaHei;" parent="1" vertex="1">
                    <mxGeometry x="120" y="1000" width="150" height="30" as="geometry"/>
                </mxCell>
                <mxCell id="time-realtime" value="🕐 实时处理 (≤3秒)&lt;br&gt;端侧采集 + 边缘AI推理" style="rounded=1;whiteSpace=wrap;html=1;fillColor=#c8e6c9;strokeColor=#4caf50;strokeWidth=2;fontFamily=Microsoft YaHei;shadow=1;" parent="1" vertex="1">
                    <mxGeometry x="120" y="1040" width="300" height="50" as="geometry"/>
                </mxCell>
                <mxCell id="time-cloud" value="☁️ 云端校验 (5-10秒)&lt;br&gt;大模型二次验证 + 数据存储" style="rounded=1;whiteSpace=wrap;html=1;fillColor=#fff3e0;strokeColor=#ff9800;strokeWidth=2;fontFamily=Microsoft YaHei;shadow=1;" parent="1" vertex="1">
                    <mxGeometry x="450" y="1040" width="300" height="50" as="geometry"/>
                </mxCell>
                <mxCell id="time-analysis" value="📊 深度分析 (分钟级)&lt;br&gt;趋势分析 + 预测模型 + 报表生成" style="rounded=1;whiteSpace=wrap;html=1;fillColor=#e1bee7;strokeColor=#9c27b0;strokeWidth=2;fontFamily=Microsoft YaHei;shadow=1;" parent="1" vertex="1">
                    <mxGeometry x="780" y="1040" width="300" height="50" as="geometry"/>
                </mxCell>
                <mxCell id="kpi-title" value="📊 关键性能指标 (KPI)" style="text;html=1;strokeColor=none;fillColor=none;align=left;verticalAlign=middle;whiteSpace=wrap;rounded=0;fontSize=16;fontStyle=1;fontColor=#1565c0;fontFamily=Microsoft YaHei;" parent="1" vertex="1">
                    <mxGeometry x="120" y="1120" width="200" height="30" as="geometry"/>
                </mxCell>
                <mxCell id="kpi-accuracy" value="🎯 识别准确率&lt;br&gt;&lt;b&gt;≥95%&lt;/b&gt;&lt;br&gt;&lt;font size=&quot;2&quot;&gt;(±4%误差范围)&lt;/font&gt;" style="rounded=1;whiteSpace=wrap;html=1;fillColor=#c8e6c9;strokeColor=#4caf50;strokeWidth=2;fontFamily=Microsoft YaHei;shadow=1;" parent="1" vertex="1">
                    <mxGeometry x="120" y="1160" width="120" height="50" as="geometry"/>
                </mxCell>
                <mxCell id="kpi-speed" value="⚡ 响应时间&lt;br&gt;&lt;b&gt;≤3秒&lt;/b&gt;" style="rounded=1;whiteSpace=wrap;html=1;fillColor=#c8e6c9;strokeColor=#4caf50;strokeWidth=2;fontFamily=Microsoft YaHei;shadow=1;" parent="1" vertex="1">
                    <mxGeometry x="260" y="1160" width="120" height="50" as="geometry"/>
                </mxCell>
                <mxCell id="kpi-precision" value="📏 读数精度&lt;br&gt;&lt;b&gt;±4%≥95%&lt;/b&gt;&lt;br&gt;&lt;font size=&quot;2&quot;&gt;±2%≥90%&lt;/font&gt;" style="rounded=1;whiteSpace=wrap;html=1;fillColor=#c8e6c9;strokeColor=#4caf50;strokeWidth=2;fontFamily=Microsoft YaHei;shadow=1;" parent="1" vertex="1">
                    <mxGeometry x="400" y="1160" width="120" height="50" as="geometry"/>
                </mxCell>
                <mxCell id="kpi-uptime" value="⏰ 系统可用性&lt;br&gt;&lt;b&gt;≥99.9%&lt;/b&gt;" style="rounded=1;whiteSpace=wrap;html=1;fillColor=#c8e6c9;strokeColor=#4caf50;strokeWidth=2;fontFamily=Microsoft YaHei;shadow=1;" parent="1" vertex="1">
                    <mxGeometry x="540" y="1160" width="120" height="50" as="geometry"/>
                </mxCell>
                <mxCell id="kpi-battery" value="🔋 续航时间&lt;br&gt;&lt;b&gt;8-10小时&lt;/b&gt;" style="rounded=1;whiteSpace=wrap;html=1;fillColor=#c8e6c9;strokeColor=#4caf50;strokeWidth=2;fontFamily=Microsoft YaHei;shadow=1;" parent="1" vertex="1">
                    <mxGeometry x="680" y="1160" width="120" height="50" as="geometry"/>
                </mxCell>
                <mxCell id="kpi-efficiency" value="🤖 大模型辅助&lt;br style=&quot;border-color: var(--border-color);&quot;&gt;&lt;b style=&quot;border-color: var(--border-color);&quot;&gt;异常检测&lt;/b&gt;&lt;br style=&quot;border-color: var(--border-color);&quot;&gt;&lt;font style=&quot;border-color: var(--border-color);&quot; size=&quot;2&quot;&gt;(趋势分析)&lt;/font&gt;" style="rounded=1;whiteSpace=wrap;html=1;fillColor=#c8e6c9;strokeColor=#4caf50;strokeWidth=2;fontFamily=Microsoft YaHei;shadow=1;" parent="1" vertex="1">
                    <mxGeometry x="820" y="1160" width="120" height="50" as="geometry"/>
                </mxCell>
                <mxCell id="data-volume-title" value="📊 数据流量分析" style="text;html=1;strokeColor=none;fillColor=none;align=left;verticalAlign=middle;whiteSpace=wrap;rounded=0;fontSize=16;fontStyle=1;fontColor=#1565c0;fontFamily=Microsoft YaHei;" parent="1" vertex="1">
                    <mxGeometry x="1250" y="1000" width="200" height="30" as="geometry"/>
                </mxCell>
                <mxCell id="data-image" value="📷 图像数据&lt;br&gt;4K: ~8MB/张&lt;br&gt;1080p: ~2MB/张" style="rounded=1;whiteSpace=wrap;html=1;fillColor=#e3f2fd;strokeColor=#1976d2;strokeWidth=2;fontFamily=Microsoft YaHei;shadow=1;" parent="1" vertex="1">
                    <mxGeometry x="1250" y="1040" width="140" height="60" as="geometry"/>
                </mxCell>
                <mxCell id="data-result" value="📊 识别结果&lt;br&gt;JSON: ~1KB/次&lt;br&gt;元数据: ~0.5KB/次" style="rounded=1;whiteSpace=wrap;html=1;fillColor=#fff3e0;strokeColor=#f57c00;strokeWidth=2;fontFamily=Microsoft YaHei;shadow=1;" parent="1" vertex="1">
                    <mxGeometry x="1410" y="1040" width="140" height="60" as="geometry"/>
                </mxCell>
                <mxCell id="data-analytics" value="📈 分析数据&lt;br&gt;历史趋势: ~10MB/天&lt;br&gt;实时监控: ~1MB/小时" style="rounded=1;whiteSpace=wrap;html=1;fillColor=#f3e5f5;strokeColor=#9c27b0;strokeWidth=2;fontFamily=Microsoft YaHei;shadow=1;" parent="1" vertex="1">
                    <mxGeometry x="1570" y="1040" width="140" height="60" as="geometry"/>
                </mxCell>
                <mxCell id="security-title" value="🔒 安全保障措施" style="text;html=1;strokeColor=none;fillColor=none;align=left;verticalAlign=middle;whiteSpace=wrap;rounded=0;fontSize=16;fontStyle=1;fontColor=#1565c0;fontFamily=Microsoft YaHei;" parent="1" vertex="1">
                    <mxGeometry x="1250" y="1120" width="200" height="30" as="geometry"/>
                </mxCell>
                <mxCell id="security-encrypt" value="🔐 数据加密&lt;br&gt;AES-256加密&lt;br&gt;HTTPS传输" style="rounded=1;whiteSpace=wrap;html=1;fillColor=#fce4ec;strokeColor=#e91e63;strokeWidth=2;fontFamily=Microsoft YaHei;shadow=1;" parent="1" vertex="1">
                    <mxGeometry x="1250" y="1160" width="120" height="50" as="geometry"/>
                </mxCell>
                <mxCell id="security-auth" value="👤 身份认证&lt;br&gt;多重验证&lt;br&gt;权限控制" style="rounded=1;whiteSpace=wrap;html=1;fillColor=#fce4ec;strokeColor=#e91e63;strokeWidth=2;fontFamily=Microsoft YaHei;shadow=1;" parent="1" vertex="1">
                    <mxGeometry x="1390" y="1160" width="120" height="50" as="geometry"/>
                </mxCell>
                <mxCell id="security-audit" value="📝 审计日志&lt;br&gt;操作记录&lt;br&gt;追踪溯源" style="rounded=1;whiteSpace=wrap;html=1;fillColor=#fce4ec;strokeColor=#e91e63;strokeWidth=2;fontFamily=Microsoft YaHei;shadow=1;" parent="1" vertex="1">
                    <mxGeometry x="1530" y="1160" width="120" height="50" as="geometry"/>
                </mxCell>
            </root>
        </mxGraphModel>
    </diagram>
</mxfile>